<svg xmlns="http://www.w3.org/2000/svg" viewBox="0 0 363 161"><title>robdonn health</title><g id="robdonn_health" data-name="robdonn health"><g id="health"><path id="h" d="M108.31,104.29v11.47a16.3,16.3,0,0,1,2.87-2.69,10.46,10.46,0,0,1,3.1-1.49,13.05,13.05,0,0,1,3.66-.5,10.72,10.72,0,0,1,5.22,1.25,9.74,9.74,0,0,1,4.69,6.73,24.34,24.34,0,0,1,.28,4v14.81a5.1,5.1,0,0,1-1.06,3.51,3.61,3.61,0,0,1-2.82,1.19q-3.82,0-3.82-4.7V124.76a11.9,11.9,0,0,0-1.11-5.7q-1.09-2-4.19-2a6.22,6.22,0,0,0-3.72,1.18,7,7,0,0,0-2.48,3.21,20.45,20.45,0,0,0-.62,6.15v10.22a5.24,5.24,0,0,1-1,3.5,3.59,3.59,0,0,1-2.87,1.2q-3.83,0-3.82-4.7V104.29a5.33,5.33,0,0,1,1-3.53,3.52,3.52,0,0,1,2.82-1.17,3.59,3.59,0,0,1,2.87,1.19A5.2,5.2,0,0,1,108.31,104.29Z"/><path id="e" d="M157.36,128.7H142.23a10.24,10.24,0,0,0,1.07,4.64,7.27,7.27,0,0,0,2.74,3,7.38,7.38,0,0,0,3.78,1,9.2,9.2,0,0,0,2.54-.32,8.52,8.52,0,0,0,2.22-1,16,16,0,0,0,2-1.49c.61-.53,1.39-1.24,2.36-2.15a2.51,2.51,0,0,1,1.69-.51,2.82,2.82,0,0,1,1.93.65,2.34,2.34,0,0,1,.74,1.84,5.09,5.09,0,0,1-.82,2.45,9.78,9.78,0,0,1-2.48,2.69,14.3,14.3,0,0,1-4.17,2.14,17.81,17.81,0,0,1-5.76.85q-7.45,0-11.58-4.25t-4.14-11.52a19.19,19.19,0,0,1,1-6.36,13.92,13.92,0,0,1,3-5,12.72,12.72,0,0,1,4.81-3.21,17.19,17.19,0,0,1,6.34-1.12,15.11,15.11,0,0,1,7.78,1.91,12.59,12.59,0,0,1,4.86,4.94,13.07,13.07,0,0,1,1.61,6.18c0,1.94-.56,3.2-1.67,3.78A10.51,10.51,0,0,1,157.36,128.7Zm-15.13-4.39h14a9.43,9.43,0,0,0-2.13-5.93,6.43,6.43,0,0,0-4.89-2,6.14,6.14,0,0,0-4.74,2A10,10,0,0,0,142.23,124.31Z"/><path id="a" d="M189.78,138.16a23.9,23.9,0,0,1-5.42,3.27,15.1,15.1,0,0,1-5.88,1.09,11.16,11.16,0,0,1-5.22-1.17,8.65,8.65,0,0,1-3.47-3.19,8.27,8.27,0,0,1-1.22-4.36,7.8,7.8,0,0,1,2-5.41,10.05,10.05,0,0,1,5.53-3c.49-.12,1.7-.37,3.65-.77s3.61-.76,5-1.09,2.89-.73,4.51-1.2a8,8,0,0,0-1.23-4.49c-.72-1-2.23-1.43-4.51-1.43a9.4,9.4,0,0,0-4.44.82,7.28,7.28,0,0,0-2.55,2.46,22.46,22.46,0,0,1-1.5,2.17,2.45,2.45,0,0,1-1.88.52,3.26,3.26,0,0,1-2.25-.83,2.74,2.74,0,0,1-.95-2.14,6.53,6.53,0,0,1,1.44-4,10.43,10.43,0,0,1,4.51-3.18,20.32,20.32,0,0,1,7.62-1.24,21.61,21.61,0,0,1,8,1.2,7.44,7.44,0,0,1,4.12,3.81,16.71,16.71,0,0,1,1.2,6.91c0,1.81,0,3.35,0,4.62s0,2.67,0,4.22a15.54,15.54,0,0,0,.72,4.54,14.36,14.36,0,0,1,.72,3,2.83,2.83,0,0,1-1.12,2.16,3.74,3.74,0,0,1-2.53,1,3.4,3.4,0,0,1-2.35-1.12A16.11,16.11,0,0,1,189.78,138.16ZM189.27,127a37.56,37.56,0,0,1-4.94,1.32c-2.16.46-3.66.8-4.49,1a6.21,6.21,0,0,0-2.38,1.27,3.3,3.3,0,0,0-1.13,2.65,4,4,0,0,0,1.33,3,4.94,4.94,0,0,0,3.49,1.23,9,9,0,0,0,4.23-1,6.77,6.77,0,0,0,2.85-2.6q1-1.75,1-5.77Z"/><path id="l" d="M204.71,137.82V104.29a5.2,5.2,0,0,1,1-3.51,3.49,3.49,0,0,1,2.79-1.19,3.65,3.65,0,0,1,2.83,1.17,5.07,5.07,0,0,1,1.08,3.53v33.53a5,5,0,0,1-1.09,3.53,3.69,3.69,0,0,1-2.82,1.17,3.5,3.5,0,0,1-2.76-1.22A5.12,5.12,0,0,1,204.71,137.82Z"/><path id="t" d="M220.85,111.76h.85v-4.64c0-1.25,0-2.22.1-2.93a4.42,4.42,0,0,1,.55-1.83,3.46,3.46,0,0,1,1.31-1.29,3.65,3.65,0,0,1,1.89-.49,3.83,3.83,0,0,1,2.66,1.1,3.26,3.26,0,0,1,1,1.8,16.53,16.53,0,0,1,.21,3v5.26h2.83a3.61,3.61,0,0,1,2.51.78,2.56,2.56,0,0,1,.86,2,2.23,2.23,0,0,1-1.23,2.18,7.9,7.9,0,0,1-3.52.62h-1.45v14.22a22,22,0,0,0,.13,2.79,2.82,2.82,0,0,0,.68,1.59,2.35,2.35,0,0,0,1.8.6,9.72,9.72,0,0,0,1.84-.24,9.57,9.57,0,0,1,1.81-.24,2.35,2.35,0,0,1,1.69.75,2.53,2.53,0,0,1,.75,1.86,3.1,3.1,0,0,1-2,2.86,13.81,13.81,0,0,1-5.86,1,10.17,10.17,0,0,1-5.5-1.22,5.67,5.67,0,0,1-2.45-3.37,22.7,22.7,0,0,1-.58-5.75V117.34h-1a3.69,3.69,0,0,1-2.55-.79,2.61,2.61,0,0,1-.88-2,2.5,2.5,0,0,1,.93-2A4,4,0,0,1,220.85,111.76Z"/><path id="h-2" data-name="h" d="M248.52,104.29v11.47a16.3,16.3,0,0,1,2.87-2.69,10.39,10.39,0,0,1,3.11-1.49,13,13,0,0,1,3.65-.5,10.78,10.78,0,0,1,5.23,1.25,9.67,9.67,0,0,1,4.68,6.73,24.34,24.34,0,0,1,.28,4v14.81a5.1,5.1,0,0,1-1.06,3.51,3.61,3.61,0,0,1-2.82,1.19c-2.54,0-3.82-1.57-3.82-4.7V124.76a12,12,0,0,0-1.1-5.7q-1.11-2-4.19-2a6.27,6.27,0,0,0-3.73,1.18,7.09,7.09,0,0,0-2.48,3.21,20.79,20.79,0,0,0-.62,6.15v10.22a5.24,5.24,0,0,1-1,3.5,3.6,3.6,0,0,1-2.88,1.2q-3.83,0-3.82-4.7V104.29a5.33,5.33,0,0,1,1-3.53,3.52,3.52,0,0,1,2.82-1.17,3.59,3.59,0,0,1,2.88,1.19A5.2,5.2,0,0,1,248.52,104.29Z"/></g><g id="robdonn"><path id="r" d="M27,33.51l-.4,8.6c2.8-7.8,6.4-10,16.7-9.9v13.4a25,25,0,0,0-3.6-.2c-4.9,0-8.9,2.2-10.5,5.8-1.4,3.2-1.9,7.7-1.9,17v13.6H13.13V33.51Z"/><path id="o" d="M94.93,58c0,14.6-10.8,25.1-25.7,25.1s-25.6-10.5-25.6-25.5,10.6-25.4,25.6-25.4C84.53,32.21,94.93,42.61,94.93,58Zm-37-.4c0,9.1,4.1,14.2,11.4,14.2,7.1,0,11.3-5.1,11.3-13.9,0-9.3-4-14.4-11.4-14.4C62,43.51,57.93,48.61,57.93,57.61Z"/><path id="b" d="M100,15.11h14.2v21.8c4.6-3.4,8.4-4.7,13.3-4.7,12.3,0,20.6,10,20.6,24.8,0,15.2-8.9,26.1-21.3,26.1-6,0-9.4-1.8-13.2-6.8v5.5H100Zm13.6,42.5c0,8.4,4.1,14,10.3,14s10.2-5.4,10.2-13.8c0-8.7-3.9-14.1-10.2-14.1S113.63,49.31,113.63,57.61Z"/><path id="d" d="M198.93,81.81h-13.6v-5.2c-3.6,4.7-7.4,6.5-13.3,6.5-12.7,0-21.2-10.1-21.2-25.4s8.6-25.6,21.6-25.6c5.2,0,8.9,1.5,12.3,5v-22h14.2Zm-34.1-24.2c0,8.5,4,14,10.2,14s10.2-5.6,10.2-13.8c0-8.6-4-14.2-10.2-14.2S164.83,49.11,164.83,57.61Z"/><path id="o-2" data-name="o" d="M255.33,58c0,14.6-10.8,25.1-25.71,25.1S204,72.61,204,57.61s10.6-25.4,25.6-25.4C244.93,32.21,255.33,42.61,255.33,58Zm-37-.4c0,9.1,4.1,14.2,11.41,14.2,7.1,0,11.3-5.1,11.3-13.9,0-9.3-4-14.4-11.41-14.4C222.42,43.51,218.32,48.61,218.32,57.61Z"/><path id="n" d="M274.22,33.51v4.7c5.2-4.8,8.2-6.1,13.21-6.1,10.5,0,16.9,7,16.9,18.4v31.3H290.12V55.51c0-4.9-.29-6.8-1.5-8.6a6.7,6.7,0,0,0-5.8-2.8,8,8,0,0,0-6.1,2.6c-1.6,1.8-2.1,3.8-2.1,8v27.1h-14.2V33.51Z"/><path id="n-2" data-name="n" d="M325.62,33.51v4.7c5.2-4.8,8.2-6.1,13.21-6.1,10.5,0,16.9,7,16.9,18.4v31.3h-14.2V55.51c0-4.9-.31-6.8-1.5-8.6a6.74,6.74,0,0,0-5.81-2.8,8,8,0,0,0-6.1,2.6c-1.6,1.8-2.1,3.8-2.1,8v27.1h-14.2V33.51Z"/></g></g></svg>