<svg id="robdonn_code" data-name="robdonn code" xmlns="http://www.w3.org/2000/svg" viewBox="0 0 363 161"><title>code</title><g id="code"><path id="_" data-name="&lt;" d="M101.42,124.23l-1.84.66,1.84.62,16.09,5.78v6.79L93,127.52v-5.38l24.53-10.54v6.77Z"/><path id="c" d="M137.6,138a7.4,7.4,0,0,0,2.42-.4,7,7,0,0,0,2.08-1.1,5.42,5.42,0,0,0,1.43-1.67,4.09,4.09,0,0,0,.49-2.1h6.4a8.43,8.43,0,0,1-1,4.15,11.18,11.18,0,0,1-2.8,3.38,14,14,0,0,1-4.1,2.3,14.22,14.22,0,0,1-4.87.85,14.78,14.78,0,0,1-6.2-1.22,12.5,12.5,0,0,1-4.45-3.33,14,14,0,0,1-2.67-4.9,19.21,19.21,0,0,1-.89-5.93v-1a19.34,19.34,0,0,1,.89-6,13.94,13.94,0,0,1,2.67-4.9,12.84,12.84,0,0,1,4.45-3.32,14.4,14.4,0,0,1,6.17-1.24,15.23,15.23,0,0,1,5.14.85,12.29,12.29,0,0,1,4.08,2.38,10.66,10.66,0,0,1,2.66,3.66,10.78,10.78,0,0,1,.92,4.64H144a5.5,5.5,0,0,0-.44-2.35,5.64,5.64,0,0,0-1.34-1.93,6.74,6.74,0,0,0-2.07-1.3,6.87,6.87,0,0,0-2.6-.48,6.34,6.34,0,0,0-5.81,3.13,9.55,9.55,0,0,0-1.2,3.18,18.32,18.32,0,0,0-.36,3.63v1a18.37,18.37,0,0,0,.36,3.65,9.6,9.6,0,0,0,1.2,3.19A6.4,6.4,0,0,0,137.6,138Z"/><path id="o" d="M154.4,127.21a19.06,19.06,0,0,1,1-6.18,14.68,14.68,0,0,1,2.81-5,12.8,12.8,0,0,1,4.46-3.29,14.36,14.36,0,0,1,6-1.19,14.6,14.6,0,0,1,6,1.19,12.75,12.75,0,0,1,4.47,3.29,14.47,14.47,0,0,1,2.79,5,19.06,19.06,0,0,1,1,6.18v.59a19.05,19.05,0,0,1-1,6.2A14.29,14.29,0,0,1,179.1,139a13,13,0,0,1-4.46,3.27,14.36,14.36,0,0,1-6,1.19,14.6,14.6,0,0,1-6-1.19,13,13,0,0,1-4.47-3.27,14.49,14.49,0,0,1-2.81-4.95,19.05,19.05,0,0,1-1-6.2Zm6.76.59a17.11,17.11,0,0,0,.44,3.94A10.3,10.3,0,0,0,163,135a6.77,6.77,0,0,0,2.34,2.21,6.67,6.67,0,0,0,3.37.81,6.51,6.51,0,0,0,3.3-.81,6.8,6.8,0,0,0,2.32-2.21,10.08,10.08,0,0,0,1.36-3.24,17.11,17.11,0,0,0,.44-3.94v-.59a16.84,16.84,0,0,0-.44-3.88,9.93,9.93,0,0,0-1.36-3.23,7,7,0,0,0-2.32-2.21,7.25,7.25,0,0,0-6.7,0A6.81,6.81,0,0,0,163,120.1a10.14,10.14,0,0,0-1.35,3.23,16.84,16.84,0,0,0-.44,3.88Z"/><path id="d" d="M186.18,127.26a22.41,22.41,0,0,1,.85-6.37,14.77,14.77,0,0,1,2.43-5,10.86,10.86,0,0,1,8.89-4.34,10.71,10.71,0,0,1,4.45.87,9.83,9.83,0,0,1,3.37,2.48V99.31H213v43.5h-6.15l-.34-3.11a9.67,9.67,0,0,1-3.47,2.73,11,11,0,0,1-4.71.95,10.52,10.52,0,0,1-5-1.18,11.18,11.18,0,0,1-3.81-3.24,15.57,15.57,0,0,1-2.44-4.91,21.1,21.1,0,0,1-.86-6.19Zm6.77.6a18.42,18.42,0,0,0,.39,3.88,10,10,0,0,0,1.26,3.17,6.08,6.08,0,0,0,5.43,2.92,6.6,6.6,0,0,0,3.79-1,7.19,7.19,0,0,0,2.35-2.7V120.81a7,7,0,0,0-2.36-2.66,6.55,6.55,0,0,0-3.73-1,6.28,6.28,0,0,0-3.24.8,6.4,6.4,0,0,0-2.21,2.18,10.05,10.05,0,0,0-1.27,3.23,17.47,17.47,0,0,0-.41,3.9Z"/><path id="e" d="M232.8,143.38a16.45,16.45,0,0,1-6.2-1.13,14.44,14.44,0,0,1-4.8-3.12,13.84,13.84,0,0,1-3.11-4.69,15.41,15.41,0,0,1-1.1-5.84v-1.17a17.36,17.36,0,0,1,1.18-6.57,15.6,15.6,0,0,1,3.14-5,13.36,13.36,0,0,1,4.59-3.17,13.93,13.93,0,0,1,5.5-1.11,14.68,14.68,0,0,1,5.9,1.12,11.71,11.71,0,0,1,4.26,3.15,13.87,13.87,0,0,1,2.59,4.8,20.25,20.25,0,0,1,.88,6.08v2.87H224.39a10.11,10.11,0,0,0,.87,3.31,9,9,0,0,0,1.86,2.65,8.34,8.34,0,0,0,2.69,1.75,8.7,8.7,0,0,0,3.38.64,11,11,0,0,0,4.75-1,9.31,9.31,0,0,0,3.52-2.8l3.69,3.45a11.64,11.64,0,0,1-1.9,2.14,13.36,13.36,0,0,1-2.72,1.84,16.4,16.4,0,0,1-3.5,1.3A17,17,0,0,1,232.8,143.38ZM232,117.07a6.75,6.75,0,0,0-2.64.51,6.52,6.52,0,0,0-2.18,1.49,8.8,8.8,0,0,0-1.63,2.37,11.92,11.92,0,0,0-.95,3.19h14.36v-.51a9.6,9.6,0,0,0-.52-2.62,6.81,6.81,0,0,0-1.29-2.25,6.28,6.28,0,0,0-2.14-1.59A7.22,7.22,0,0,0,232,117.07Z"/><path id="_2" data-name="&gt;" d="M250.36,118.26v-6.68l25.29,10.53v5.41l-25.29,10.56v-6.71l17-6,1.85-.57-1.85-.59Z"/></g><g id="robdonn"><path id="r" d="M27,33.51l-.4,8.6c2.8-7.8,6.4-10,16.7-9.9v13.4a25,25,0,0,0-3.6-.2c-4.9,0-8.9,2.2-10.5,5.8-1.4,3.2-1.9,7.7-1.9,17v13.6H13.13V33.51Z"/><path id="o-2" data-name="o" d="M94.93,58c0,14.6-10.8,25.1-25.7,25.1s-25.6-10.5-25.6-25.5,10.6-25.4,25.6-25.4C84.53,32.21,94.93,42.61,94.93,58Zm-37-.4c0,9.1,4.1,14.2,11.4,14.2,7.1,0,11.3-5.1,11.3-13.9,0-9.3-4-14.4-11.4-14.4C62,43.51,57.93,48.61,57.93,57.61Z"/><path id="b" d="M100,15.11h14.2v21.8c4.6-3.4,8.4-4.7,13.3-4.7,12.3,0,20.6,10,20.6,24.8,0,15.2-8.9,26.1-21.3,26.1-6,0-9.4-1.8-13.2-6.8v5.5H100Zm13.6,42.5c0,8.4,4.1,14,10.3,14s10.2-5.4,10.2-13.8c0-8.7-3.9-14.1-10.2-14.1S113.63,49.31,113.63,57.61Z"/><path id="d-2" data-name="d" d="M198.93,81.81h-13.6v-5.2c-3.6,4.7-7.4,6.5-13.3,6.5-12.7,0-21.2-10.1-21.2-25.4s8.6-25.6,21.6-25.6c5.2,0,8.9,1.5,12.3,5v-22h14.2Zm-34.1-24.2c0,8.5,4,14,10.2,14s10.2-5.6,10.2-13.8c0-8.6-4-14.2-10.2-14.2S164.83,49.11,164.83,57.61Z"/><path id="o-3" data-name="o" d="M255.33,58c0,14.6-10.8,25.1-25.7,25.1S204,72.61,204,57.61s10.6-25.4,25.61-25.4C244.93,32.21,255.33,42.61,255.33,58Zm-37-.4c0,9.1,4.1,14.2,11.41,14.2,7.1,0,11.3-5.1,11.3-13.9,0-9.3-4-14.4-11.4-14.4C222.42,43.51,218.32,48.61,218.32,57.61Z"/><path id="n" d="M274.22,33.51v4.7c5.2-4.8,8.2-6.1,13.21-6.1,10.5,0,16.9,7,16.9,18.4v31.3H290.12V55.51c0-4.9-.29-6.8-1.5-8.6a6.7,6.7,0,0,0-5.8-2.8,8,8,0,0,0-6.1,2.6c-1.6,1.8-2.1,3.8-2.1,8v27.1h-14.2V33.51Z"/><path id="n-2" data-name="n" d="M325.62,33.51v4.7c5.2-4.8,8.2-6.1,13.21-6.1,10.5,0,16.9,7,16.9,18.4v31.3h-14.2V55.51c0-4.9-.3-6.8-1.51-8.6a6.71,6.71,0,0,0-5.8-2.8,8,8,0,0,0-6.1,2.6c-1.6,1.8-2.1,3.8-2.1,8v27.1h-14.2V33.51Z"/></g></svg>