<svg xmlns="http://www.w3.org/2000/svg" viewBox="0 0 363 161"><title>robdonn vids</title><g id="robdonn_vids" data-name="robdonn vids"><g id="vids"><path id="v" d="M152.2,121.38l.7-1q2.19-3.2,5.07-3.2a3.87,3.87,0,0,1,2.85,1.13,4,4,0,0,1,1.13,2.93q0,1.8-2.26,4.83l-14.12,18.18a8.5,8.5,0,0,1-2.57,2.34,5.49,5.49,0,0,1-5.77.08,5.48,5.48,0,0,1-2.11-1.95,8.88,8.88,0,0,1-.94-4.61v-.39a1.75,1.75,0,0,1,.08-.54L135.59,124a15.59,15.59,0,0,1,.35-2.3,6.19,6.19,0,0,1,.58-1.45,5.13,5.13,0,0,1,2-1.87,5.39,5.39,0,0,1,2.62-.7,3.37,3.37,0,0,1,2.53,1,3.59,3.59,0,0,1,1,2.58c0,.1,0,.34,0,.7s-.07.75-.12,1.17l-1.09,10.29Z"/><path id="i" d="M172.56,138.47h.94q3.9.15,3.9,3.43a4.48,4.48,0,0,1-1.64,3.47,5.7,5.7,0,0,1-3.9,1.44h-6.94a9.31,9.31,0,0,1-5.39-1.32,4.43,4.43,0,0,1-1.87-3.83,5.08,5.08,0,0,1,.16-1.36c.1-.39.31-1,.62-1.83L164.76,123l.39-1c1.2-2.86,3.09-4.29,5.69-4.29a3.9,3.9,0,0,1,2.77,1,3.39,3.39,0,0,1,1.13,2.61,6.36,6.36,0,0,1-.62,2.58l-.39,1.09-5.46,13.42Zm-3-24a5.07,5.07,0,0,1-1.56-3.74,5.15,5.15,0,0,1,1.52-3.75,5,5,0,0,1,3.7-1.56,5.33,5.33,0,0,1,5.38,5.38,5,5,0,0,1-1.52,3.71,5.36,5.36,0,0,1-7.52,0Z"/><path id="d" d="M206.88,138.47h.86q3.9.15,3.9,3.43a4.53,4.53,0,0,1-1.6,3.47,5.59,5.59,0,0,1-3.86,1.44h-6.09a4.8,4.8,0,0,1-4.37-2.42c-1.61,1.62-3.09,2.42-4.44,2.42h-6.09a7.49,7.49,0,0,1-3.47-.82,9,9,0,0,1-2.8-2.22,10.05,10.05,0,0,1-1.88-3.31,12.77,12.77,0,0,1-.66-4.18,19.25,19.25,0,0,1,1.37-7.17,21.32,21.32,0,0,1,3.62-6.09,18.61,18.61,0,0,1,5.19-4.25,12.65,12.65,0,0,1,6.12-1.6,9,9,0,0,1,7.33,3.28l8.51-20.83.39-1c1.3-2.91,3.19-4.37,5.69-4.37a3.92,3.92,0,0,1,2.77,1.05,3.47,3.47,0,0,1,1.13,2.62,6.65,6.65,0,0,1-.62,2.65l-.39,1-15,36.9Zm-10.53-8.9.23-.62a3.06,3.06,0,0,0,.31-1.4,2.38,2.38,0,0,0-1-1.91,3.71,3.71,0,0,0-2.42-.82,5.32,5.32,0,0,0-2.92.93,10.85,10.85,0,0,0-2.62,2.42,12.57,12.57,0,0,0-1.87,3.35,10.58,10.58,0,0,0-.7,3.75q0,3.43,3.2,3.43h1.71a3.51,3.51,0,0,0,1.88-.66,3.3,3.3,0,0,0,1.32-1.45Z"/><path id="s" d="M223.26,129.81q-1.56,3.74-4.68,3.74a4.14,4.14,0,0,1-2.81-1.09,3.19,3.19,0,0,1-1.25-2.42,8.7,8.7,0,0,1,1.09-3.59l5.07-10.29c1.2-2.39,2.73-3.59,4.61-3.59a4,4,0,0,1,2.58.9,2.77,2.77,0,0,1,1.1,2.22,7.86,7.86,0,0,1-.23,1.56,5.26,5.26,0,0,0-.12.78,6.79,6.79,0,0,0,0,.78,8.29,8.29,0,0,0,1.81,4.84l2.2,3c2.2,3.12,3.3,6,3.3,8.66a11.17,11.17,0,0,1-1.45,5.5,11.35,11.35,0,0,1-4,4.17,7.94,7.94,0,0,1-1.66.74c-.57.18-1.44.4-2.59.66a10.29,10.29,0,0,1-1.44.31,6.07,6.07,0,0,1-.9.08h-9.44c-2.6-.1-3.9-1.25-3.9-3.43a4.48,4.48,0,0,1,1.64-3.47,5.7,5.7,0,0,1,3.9-1.44h5.31q5.3,0,5.3-3.9a5.59,5.59,0,0,0-.19-1.45,12.21,12.21,0,0,0-.75-1.75L224,128.09Z"/></g><g id="robdonn"><path id="r" d="M27,33.51l-.4,8.6c2.8-7.8,6.4-10,16.7-9.9v13.4a25,25,0,0,0-3.6-.2c-4.9,0-8.9,2.2-10.5,5.8-1.4,3.2-1.9,7.7-1.9,17v13.6H13.13V33.51Z"/><path id="o" d="M94.93,58c0,14.6-10.8,25.1-25.7,25.1s-25.6-10.5-25.6-25.5,10.6-25.4,25.6-25.4C84.53,32.21,94.93,42.61,94.93,58Zm-37-.4c0,9.1,4.1,14.2,11.4,14.2,7.1,0,11.3-5.1,11.3-13.9,0-9.3-4-14.4-11.4-14.4C62,43.51,57.93,48.61,57.93,57.61Z"/><path id="b" d="M100,15.11h14.2v21.8c4.6-3.4,8.4-4.7,13.3-4.7,12.3,0,20.6,10,20.6,24.8,0,15.2-8.9,26.1-21.3,26.1-6,0-9.4-1.8-13.2-6.8v5.5H100Zm13.6,42.5c0,8.4,4.1,14,10.3,14s10.2-5.4,10.2-13.8c0-8.7-3.9-14.1-10.2-14.1S113.63,49.31,113.63,57.61Z"/><path id="d-2" data-name="d" d="M198.93,81.81h-13.6v-5.2c-3.6,4.7-7.4,6.5-13.3,6.5-12.7,0-21.2-10.1-21.2-25.4s8.6-25.6,21.6-25.6c5.2,0,8.9,1.5,12.3,5v-22h14.2Zm-34.1-24.2c0,8.5,4,14,10.2,14s10.2-5.6,10.2-13.8c0-8.6-4-14.2-10.2-14.2S164.83,49.11,164.83,57.61Z"/><path id="o-2" data-name="o" d="M255.33,58c0,14.6-10.8,25.1-25.7,25.1S204,72.61,204,57.61s10.6-25.4,25.61-25.4C244.93,32.21,255.33,42.61,255.33,58Zm-37-.4c0,9.1,4.1,14.2,11.41,14.2,7.1,0,11.3-5.1,11.3-13.9,0-9.3-4-14.4-11.4-14.4C222.42,43.51,218.32,48.61,218.32,57.61Z"/><path id="n" d="M274.22,33.51v4.7c5.2-4.8,8.2-6.1,13.21-6.1,10.5,0,16.9,7,16.9,18.4v31.3H290.12V55.51c0-4.9-.29-6.8-1.5-8.6a6.7,6.7,0,0,0-5.8-2.8,8,8,0,0,0-6.1,2.6c-1.6,1.8-2.1,3.8-2.1,8v27.1h-14.2V33.51Z"/><path id="n-2" data-name="n" d="M325.62,33.51v4.7c5.2-4.8,8.2-6.1,13.21-6.1,10.5,0,16.9,7,16.9,18.4v31.3h-14.2V55.51c0-4.9-.3-6.8-1.51-8.6a6.71,6.71,0,0,0-5.8-2.8,8,8,0,0,0-6.1,2.6c-1.6,1.8-2.1,3.8-2.1,8v27.1h-14.2V33.51Z"/></g></g></svg>